{
  "accessors": [
    {
      "bufferView": 2,
      "componentType": 5126,
      "count": 4735,
      "max": [
        0.3426609933376312,
        0.7064989805221558,
        1.0
      ],
      "min": [
        -0.3426609933376312,
        -0.7064989805221558,
        -1.0
      ],
      "type": "VEC3"
    },
    {
      "bufferView": 2,
      "byteOffset": 56820,
      "componentType": 5126,
      "count": 4735,
      "max": [
        0.9999972581863403,
        0.999809741973877,
        0.9998860955238342
      ],
      "min": [
        -0.9994081258773804,
        -0.9999088644981384,
        -0.9999986290931702
      ],
      "type": "VEC3"
    },
    {
      "bufferView": 3,
      "componentType": 5126,
      "count": 4735,
      "max": [
        1.0,
        0.9999217391014099,
        0.999628484249115,
        1.0
      ],
      "min": [
        -0.9999999403953552,
        -0.9997169971466064,
        -0.999973714351654,
        -1.0
      ],
      "type": "VEC4"
    },
    {
      "bufferView": 1,
      "componentType": 5126,
      "count": 4735,
      "max": [
        0.9931640028953552,
        0.9938700199127197
      ],
      "min": [
        0.003929140046238899,
        0.002054269891232252
      ],
      "type": "VEC2"
    },
    {
      "bufferView": 0,
      "componentType": 5125,
      "count": 24375,
      "type": "SCALAR"
    }
  ],
  "asset": {
    "extras": {
      "author": "Javi (https://sketchfab.com/JavierGomezGarcia)",
      "license": "CC-BY-4.0 (http://creativecommons.org/licenses/by/4.0/)",
      "source": "https://sketchfab.com/3d-models/animal-fox-5d3dab0c7ea245788a25f962d4f628c4",
      "title": "Animal Fox"
    },
    "generator": "Sketchfab-12.68.0",
    "version": "2.0"
  },
  "bufferViews": [
    {
      "buffer": 0,
      "byteLength": 97500,
      "name": "floatBufferViews",
      "target": 34963
    },
    {
      "buffer": 0,
      "byteLength": 37880,
      "byteOffset": 97500,
      "byteStride": 8,
      "name": "floatBufferViews",
      "target": 34962
    },
    {
      "buffer": 0,
      "byteLength": 113640,
      "byteOffset": 135380,
      "byteStride": 12,
      "name": "floatBufferViews",
      "target": 34962
    },
    {
      "buffer": 0,
      "byteLength": 75760,
      "byteOffset": 249020,
      "byteStride": 16,
      "name": "floatBufferViews",
      "target": 34962
    }
  ],
  "buffers": [
    {
      "byteLength": 324780,
      "uri": "scene.bin"
    }
  ],
  "images": [
    {
      "uri": "textures/Pets_Fox_baseColor.jpeg"
    },
    {
      "uri": "textures/Pets_Fox_metallicRoughness.png"
    },
    {
      "uri": "textures/Pets_Fox_normal.png"
    }
  ],
  "materials": [
    {
      "doubleSided": true,
      "name": "Pets_Fox",
      "normalTexture": {
        "index": 2
      },
      "occlusionTexture": {
        "index": 1
      },
      "pbrMetallicRoughness": {
        "baseColorTexture": {
          "index": 0
        },
        "metallicRoughnessTexture": {
          "index": 1
        }
      }
    }
  ],
  "meshes": [
    {
      "name": "defaultMaterial",
      "primitives": [
        {
          "attributes": {
            "NORMAL": 1,
            "POSITION": 0,
            "TANGENT": 2,
            "TEXCOORD_0": 3
          },
          "indices": 4,
          "material": 0,
          "mode": 4
        }
      ]
    }
  ],
  "nodes": [
    {
      "children": [
        1
      ],
      "matrix": [
        1.0,
        0.0,
        0.0,
        0.0,
        0.0,
        2.220446049250313e-16,
        -1.0,
        0.0,
        0.0,
        1.0,
        2.220446049250313e-16,
        0.0,
        0.0,
        0.0,
        0.0,
        1.0
      ],
      "name": "Sketchfab_model"
    },
    {
      "children": [
        2
      ],
      "matrix": [
        1.0,
        0.0,
        0.0,
        0.0,
        0.0,
        -4.371139006309477e-08,
        0.999999999999999,
        0.0,
        0.0,
        -0.999999999999999,
        -4.371139006309477e-08,
        0.0,
        0.0,
        0.0,
        0.0,
        1.0
      ],
      "name": "Collada visual scene group"
    },
    {
      "children": [
        3
      ],
      "name": "Pets_Fox"
    },
    {
      "mesh": 0,
      "name": "defaultMaterial"
    }
  ],
  "samplers": [
    {
      "magFilter": 9729,
      "minFilter": 9987,
      "wrapS": 10497,
      "wrapT": 10497
    }
  ],
  "scene": 0,
  "scenes": [
    {
      "name": "Sketchfab_Scene",
      "nodes": [
        0
      ]
    }
  ],
  "textures": [
    {
      "sampler": 0,
      "source": 0
    },
    {
      "sampler": 0,
      "source": 1
    },
    {
      "sampler": 0,
      "source": 2
    }
  ]
}
